<svg data-v-423bf9ae="" xmlns="http://www.w3.org/2000/svg" viewBox="0 0 519 90" class="iconLeft"><!----><!----><!----><g data-v-423bf9ae="" id="e12265b4-0178-479e-8ead-89a38d6fbe7a" fill="white" transform="matrix(4.51467302315642,0,0,4.51467302315642,136.38825130232348,-2.4266399026691374)"><path d="M2.00 6.22C2.84 6.22 3.21 5.78 3.21 5.19L3.21 4.89C3.21 4.30 2.84 3.86 2.00 3.86C1.16 3.86 0.80 4.30 0.80 4.89L0.80 5.19C0.80 5.78 1.16 6.22 2.00 6.22ZM0.97 14.35L3.04 14.35L3.04 7.00L0.97 7.00ZM7.46 14.52C9.35 14.52 10.61 13.48 10.61 12.07C10.61 10.79 9.79 10.07 8.19 9.86L7.36 9.74C6.76 9.66 6.59 9.45 6.59 9.06C6.59 8.69 6.87 8.44 7.57 8.44C8.19 8.44 8.81 8.74 9.27 9.20L10.46 7.98C9.72 7.25 9.00 6.83 7.46 6.83C5.71 6.83 4.61 7.81 4.61 9.23C4.61 10.56 5.42 11.28 7.08 11.49L7.88 11.59C8.40 11.66 8.62 11.84 8.62 12.21C8.62 12.64 8.34 12.91 7.53 12.91C6.73 12.91 6.10 12.54 5.59 11.97L4.37 13.20C5.12 14.04 6.05 14.52 7.46 14.52ZM16.37 6.22C17.21 6.22 17.57 5.78 17.57 5.19L17.57 4.89C17.57 4.30 17.21 3.86 16.37 3.86C15.53 3.86 15.16 4.30 15.16 4.89L15.16 5.19C15.16 5.78 15.53 6.22 16.37 6.22ZM15.33 14.35L17.40 14.35L17.40 7.00L15.33 7.00ZM23.14 14.35L23.14 12.74L21.80 12.74L21.80 8.61L23.25 8.61L23.25 7.00L21.80 7.00L21.80 5.01L19.94 5.01L19.94 6.22C19.94 6.72 19.77 7.00 19.21 7.00L18.69 7.00L18.69 8.61L19.73 8.61L19.73 12.21C19.73 13.61 20.48 14.35 21.91 14.35ZM30.07 14.35L30.07 9.59C30.07 8.86 30.69 8.51 31.29 8.51C31.96 8.51 32.30 8.96 32.30 9.91L32.30 14.35L34.37 14.35L34.37 9.59C34.37 8.86 34.97 8.51 35.59 8.51C36.27 8.51 36.60 8.96 36.60 9.91L36.60 14.35L38.67 14.35L38.67 9.74C38.67 7.90 37.88 6.83 36.47 6.83C35.35 6.83 34.50 7.49 34.23 8.32L34.19 8.32C33.87 7.35 33.14 6.83 32.13 6.83C31.04 6.83 30.42 7.46 30.16 8.25L30.07 8.25L30.07 7.00L28.00 7.00L28.00 14.35ZM43.82 10.43L43.27 12.56L43.19 12.56L42.66 10.43L41.58 7.00L39.52 7.00L42.10 14.73L41.85 15.54L40.46 15.54L40.46 17.15L41.75 17.15C43.01 17.15 43.62 16.62 44.00 15.48L46.83 7.00L44.90 7.00ZM54.99 14.35L54.99 12.74L53.65 12.74L53.65 8.61L55.10 8.61L55.10 7.00L53.65 7.00L53.65 5.01L51.79 5.01L51.79 6.22C51.79 6.72 51.62 7.00 51.06 7.00L50.54 7.00L50.54 8.61L51.58 8.61L51.58 12.21C51.58 13.61 52.33 14.35 53.76 14.35ZM60.89 14.35L62.96 14.35L62.96 7.00L60.89 7.00L60.89 11.77C60.89 12.47 60.23 12.84 59.58 12.84C58.83 12.84 58.53 12.33 58.53 11.44L58.53 7.00L56.46 7.00L56.46 11.62C56.46 13.47 57.26 14.52 58.76 14.52C59.96 14.52 60.56 13.86 60.82 13.12L60.89 13.12ZM66.96 14.35L66.96 10.05C66.96 9.20 67.55 8.93 68.75 8.93L69.27 8.93L69.27 7.00L68.91 7.00C67.76 7.00 67.20 7.78 67.03 8.60L66.96 8.60L66.96 7.00L64.89 7.00L64.89 14.35ZM72.62 14.35L72.62 9.59C72.62 8.86 73.28 8.51 73.95 8.51C74.70 8.51 74.97 8.97 74.97 9.91L74.97 14.35L77.04 14.35L77.04 9.74C77.04 7.90 76.24 6.83 74.75 6.83C73.58 6.83 72.97 7.48 72.70 8.25L72.62 8.25L72.62 7.00L70.55 7.00L70.55 14.35ZM82.10 11.09L82.10 10.08C83.41 9.87 84.55 8.86 84.55 7.29C84.55 5.59 83.24 4.41 81.28 4.41C79.38 4.41 78.44 5.53 78.12 6.65L79.83 7.36C80.00 6.68 80.49 6.17 81.21 6.17C81.89 6.17 82.35 6.55 82.35 7.27L82.35 7.46C82.35 8.50 81.61 8.89 80.14 8.95L80.14 11.09ZM81.14 14.52C82.03 14.52 82.39 14.06 82.39 13.45L82.39 13.12C82.39 12.52 82.03 12.05 81.14 12.05C80.26 12.05 79.90 12.52 79.90 13.12L79.90 13.45C79.90 14.06 80.26 14.52 81.14 14.52Z"></path></g><!----><g data-v-423bf9ae="" id="894dddf4-34a3-486d-af6e-763497e92a9b" transform="matrix(6,0,0,6,-12,-24)" stroke="none" fill="white"><path d="M15 4l7 7-7 7v-4C3 14 2 19 2 19S3 8 15 8V4z"></path></g><!----></svg>