<svg data-v-423bf9ae=""
  xmlns="http://www.w3.org/2000/svg" viewBox="0 0 90 90" class="iconLeft">
  <g data-v-423bf9ae="" id="44055325-1176-495f-a70b-4f66093fba37" transform="matrix(1.3636363636363635,0,0,1.3636363636363635,-6.181818181818173,-23.181818181818173)" stroke="none" fill="#ec4899">
    <path d="M25.3 32.9L5 48.6 5.2 17l20.1 15.9zm8.9 1.3h59.4c.8 0 1.4-.6 1.4-1.4 0-.8-.6-1.4-1.4-1.4H34.2c-.8 0-1.4.6-1.4 1.4-.1.8.6 1.4 1.4 1.4zm59.4 21.5h-87c-.8 0-1.4.6-1.4 1.4 0 .8.6 1.4 1.4 1.4h86.9c.8 0 1.4-.6 1.4-1.4.1-.7-.5-1.4-1.3-1.4zm0 24.4h-87c-.8 0-1.4.6-1.4 1.4S5.8 83 6.6 83h86.9c.8 0 1.4-.6 1.4-1.4s-.5-1.5-1.3-1.5z"></path>
  </g>
</svg>
