<?xml version="1.0" standalone="no"?>
<!DOCTYPE svg PUBLIC "-//W3C//DTD SVG 20010904//EN"
 "http://www.w3.org/TR/2001/REC-SVG-20010904/DTD/svg10.dtd">
<svg version="1.0" xmlns="http://www.w3.org/2000/svg"
 width="700.000000pt" height="700.000000pt" viewBox="0 0 700.000000 700.000000"
 preserveAspectRatio="xMidYMid meet">
<metadata>
Created by potrace 1.14, written by Peter Selinger 2001-2017
</metadata>
<g transform="translate(0.000000,700.000000) scale(0.100000,-0.100000)"
fill="#000000" stroke="none">
<path d="M4550 5425 l0 -701 -82 0 c-89 -1 -354 -12 -428 -19 -25 -2 -67 -6
-95 -9 -27 -3 -93 -10 -145 -16 -52 -6 -120 -15 -150 -20 -30 -5 -71 -11 -90
-14 -101 -16 -285 -55 -410 -88 -63 -16 -122 -31 -130 -33 -55 -12 -322 -105
-442 -154 -378 -154 -708 -348 -1018 -597 -77 -62 -230 -203 -324 -298 -121
-123 -322 -360 -378 -445 -9 -14 -39 -57 -67 -96 -27 -38 -76 -113 -107 -165
-32 -52 -63 -102 -69 -110 -47 -59 -228 -433 -318 -655 -70 -174 -196 -573
-221 -702 -2 -10 -12 -54 -21 -98 -24 -114 -24 -116 -30 -155 -3 -19 -9 -58
-14 -87 -8 -53 1 -65 14 -16 11 47 65 153 119 237 111 171 263 334 462 496
186 151 509 333 808 455 127 52 491 177 547 189 13 3 69 16 124 31 105 27 303
74 345 81 49 9 195 36 215 40 60 12 152 27 242 38 15 2 80 11 143 20 63 9 140
18 170 21 30 3 71 7 90 10 32 4 75 8 215 20 62 5 213 16 280 20 221 13 741 24
755 15 6 -4 11 -253 12 -698 l3 -692 1223 1222 1222 1223 -1225 1225 -1225
1225 0 -700z"/>
</g>
</svg>
