<?xml version="1.0" standalone="no"?>
<!DOCTYPE svg PUBLIC "-//W3C//DTD SVG 20010904//EN"
 "http://www.w3.org/TR/2001/REC-SVG-20010904/DTD/svg10.dtd">
<svg version="1.0" xmlns="http://www.w3.org/2000/svg"
 width="700.000000pt" height="700.000000pt" viewBox="0 0 700.000000 700.000000"
 preserveAspectRatio="xMidYMid meet">
<metadata>
Created by potrace 1.14, written by Peter Selinger 2001-2017
</metadata>
<g transform="translate(0.000000,700.000000) scale(0.100000,-0.100000)"
fill="#000000" stroke="none">
<path d="M4550 6301 l0 -701 -47 0 c-144 -1 -404 -13 -523 -25 -132 -13 -167
-17 -190 -20 -14 -2 -45 -7 -70 -10 -39 -5 -264 -43 -355 -60 -229 -43 -668
-180 -863 -271 -29 -13 -55 -24 -57 -24 -11 0 -247 -118 -323 -162 -46 -26
-86 -48 -88 -48 -3 0 -17 -8 -32 -19 -15 -10 -81 -54 -147 -97 -218 -144 -368
-267 -575 -474 -183 -182 -214 -217 -331 -366 -364 -463 -642 -1018 -814
-1623 -24 -86 -46 -167 -49 -181 -58 -269 -90 -448 -78 -435 3 3 13 29 23 59
10 29 42 94 70 144 194 340 545 647 1009 883 58 29 107 54 110 54 3 1 32 14
65 29 167 76 372 152 590 218 121 36 439 116 530 134 22 4 45 8 50 10 8 2 159
29 335 59 14 3 45 7 70 10 25 3 56 8 70 10 14 3 41 7 60 9 19 3 58 8 85 12 55
8 57 8 165 18 41 4 86 9 100 11 42 7 180 17 390 30 204 12 223 13 528 20 l292
7 0 -701 0 -701 1225 1225 1226 1226 -1226 1225 -1225 1226 0 -701z"/>
</g>
</svg>
